<svg width="200" height="31" viewBox="0 0 200 31" fill="none" xmlns="http://www.w3.org/2000/svg">
<path d="M10.44 30.36C8.46667 30.36 6.73333 29.7467 5.24 28.52C3.77333 27.2933 2.62667 25.5733 1.8 23.36C1 21.12 0.6 18.48 0.6 15.44C0.6 12.5067 1.04 9.94666 1.92 7.76C2.82667 5.54666 4.02667 3.84 5.52 2.64C7.04 1.41333 8.72 0.799999 10.56 0.799999C11.6533 0.799999 12.6133 0.906665 13.44 1.12C14.2667 1.30666 15 1.56 15.64 1.88C15.96 2.06667 16.12 2.34667 16.12 2.72L16.24 8.8C16.24 9.25333 16.08 9.48 15.76 9.48C15.4667 9.48 15.28 9.30667 15.2 8.96L14.8 7.48C14.24 5.4 13.5867 3.96 12.84 3.16C12.12 2.36 11.2533 1.96 10.24 1.96C8.37333 1.96 6.81333 3.12 5.56 5.44C4.33333 7.73333 3.72 11.0667 3.72 15.44C3.72 18.4267 4.02667 20.9467 4.64 23C5.28 25.0533 6.09333 26.6 7.08 27.64C8.09333 28.68 9.16 29.2 10.28 29.2C11.48 29.2 12.44 28.8267 13.16 28.08C13.9067 27.3333 14.5333 25.8933 15.04 23.76L15.52 21.8C15.6 21.4 15.8133 21.2267 16.16 21.28C16.4533 21.3333 16.6 21.56 16.6 21.96L16.44 28.44C16.44 28.8133 16.2667 29.0933 15.92 29.28C15.28 29.6 14.52 29.8533 13.64 30.04C12.7867 30.2533 11.72 30.36 10.44 30.36ZM19.5788 30C19.1788 30 18.9788 29.8533 18.9788 29.56C18.9788 29.32 19.1521 29.16 19.4988 29.08L20.4188 28.92C20.9788 28.8133 21.3388 28.6667 21.4988 28.48C21.6854 28.2933 21.7788 27.92 21.7788 27.36V3.84C21.7788 3.28 21.6854 2.90667 21.4988 2.72C21.3388 2.53333 20.9788 2.38667 20.4188 2.28L19.4988 2.12C19.1521 2.04 18.9788 1.88 18.9788 1.64C18.9788 1.34667 19.1788 1.2 19.5788 1.2H26.8988C27.2988 1.2 27.4988 1.36 27.4988 1.68C27.4988 1.92 27.3521 2.06666 27.0588 2.12L25.9788 2.28C25.4188 2.36 25.0454 2.50666 24.8588 2.72C24.6988 2.93333 24.6188 3.32 24.6188 3.88V13.92C24.6188 14.2933 24.8054 14.48 25.1788 14.48H33.0988C33.4721 14.48 33.6588 14.2933 33.6588 13.92V3.88C33.6588 3.32 33.5654 2.93333 33.3788 2.72C33.2188 2.50666 32.8588 2.36 32.2988 2.28L31.2188 2.12C30.9254 2.06666 30.7788 1.92 30.7788 1.68C30.7788 1.36 30.9788 1.2 31.3788 1.2H38.6988C39.0988 1.2 39.2988 1.34667 39.2988 1.64C39.2988 1.88 39.1254 2.04 38.7787 2.12L37.8588 2.28C37.2988 2.38667 36.9254 2.53333 36.7388 2.72C36.5788 2.90667 36.4988 3.28 36.4988 3.84V27.36C36.4988 27.92 36.5788 28.2933 36.7388 28.48C36.9254 28.6667 37.2988 28.8133 37.8588 28.92L38.7787 29.08C39.1254 29.16 39.2988 29.32 39.2988 29.56C39.2988 29.8533 39.0988 30 38.6988 30H31.3788C30.9788 30 30.7788 29.84 30.7788 29.52C30.7788 29.28 30.9254 29.1333 31.2188 29.08L32.2988 28.92C32.8588 28.84 33.2188 28.6933 33.3788 28.48C33.5654 28.2667 33.6588 27.88 33.6588 27.32V16.24C33.6588 15.8667 33.4721 15.68 33.0988 15.68H25.1788C24.8054 15.68 24.6188 15.8667 24.6188 16.24V27.32C24.6188 27.88 24.6988 28.2667 24.8588 28.48C25.0454 28.6933 25.4188 28.84 25.9788 28.92L27.0588 29.08C27.3521 29.1333 27.4988 29.28 27.4988 29.52C27.4988 29.84 27.2988 30 26.8988 30H19.5788ZM41.4147 30C41.0147 30 40.8147 29.8533 40.8147 29.56C40.8147 29.32 40.988 29.16 41.3347 29.08L42.2547 28.92C42.8147 28.8133 43.1747 28.6667 43.3347 28.48C43.5214 28.2933 43.6147 27.92 43.6147 27.36V3.84C43.6147 3.28 43.5214 2.90667 43.3347 2.72C43.1747 2.53333 42.8147 2.38667 42.2547 2.28L41.3347 2.12C40.988 2.04 40.8147 1.88 40.8147 1.64C40.8147 1.34667 41.0147 1.2 41.4147 1.2H54.8547C55.468 1.2 55.8014 1.50667 55.8547 2.12L56.1747 8.76C56.228 9.21333 56.0547 9.44 55.6547 9.44C55.3347 9.44 55.148 9.26667 55.0947 8.92L54.8547 7.44C54.5614 5.62667 53.9614 4.30667 53.0547 3.48C52.148 2.62666 50.8947 2.2 49.2947 2.2C48.228 2.2 47.4814 2.36 47.0547 2.68C46.6547 2.97333 46.4547 3.50667 46.4547 4.28V13.92C46.4547 14.2933 46.6414 14.48 47.0147 14.48H49.0147C50.188 14.48 50.908 13.8533 51.1747 12.6L51.5747 10.6C51.6814 10.2 51.908 10.0267 52.2547 10.08C52.548 10.1333 52.6947 10.36 52.6947 10.76V19.76C52.6947 20.16 52.548 20.3867 52.2547 20.44C51.908 20.4933 51.6814 20.32 51.5747 19.92L51.1747 17.96C50.988 17.0267 50.7214 16.4133 50.3747 16.12C50.0547 15.8267 49.588 15.68 48.9747 15.68H47.0147C46.6414 15.68 46.4547 15.8667 46.4547 16.24V26.28C46.4547 27.24 46.6947 27.9333 47.1747 28.36C47.6814 28.7867 48.588 29 49.8947 29C51.228 29 52.3614 28.6667 53.2947 28C54.2547 27.3067 54.9214 26.0267 55.2947 24.16L55.7747 21.8C55.8547 21.4533 56.0547 21.28 56.3747 21.28C56.748 21.28 56.908 21.5067 56.8547 21.96L56.4547 29.08C56.4014 29.6933 56.068 30 55.4547 30H41.4147ZM65.5397 30.36C65.0064 30.36 64.4064 30.3067 63.7397 30.2C63.0997 30.0933 62.4864 29.96 61.8997 29.8C61.3397 29.64 60.8997 29.4667 60.5797 29.28C60.393 29.1733 60.2464 29.0667 60.1397 28.96C60.0597 28.8267 60.0197 28.6133 60.0197 28.32L59.8197 22.04C59.8197 21.5067 59.993 21.24 60.3397 21.24C60.633 21.24 60.833 21.48 60.9397 21.96L61.2997 23.48C62.2064 27.2933 63.8997 29.2 66.3797 29.2C67.713 29.2 68.7664 28.76 69.5397 27.88C70.3397 26.9733 70.7397 25.7067 70.7397 24.08C70.7397 22.5067 70.3264 21.04 69.4997 19.68C68.6997 18.32 67.4064 16.9733 65.6197 15.64C63.6464 14.2267 62.2064 12.8667 61.2997 11.56C60.393 10.2267 59.9397 8.81333 59.9397 7.32C59.9397 5.34667 60.6197 3.77333 61.9797 2.6C63.3664 1.4 65.1264 0.799999 67.2597 0.799999C68.0597 0.799999 68.833 0.893332 69.5797 1.08C70.3264 1.26667 70.9397 1.53333 71.4197 1.88C71.5797 1.98666 71.6997 2.10666 71.7797 2.24C71.8864 2.37333 71.9397 2.54667 71.9397 2.76L72.0597 8.8C72.0597 9.25333 71.8864 9.48 71.5397 9.48C71.2997 9.48 71.1264 9.29333 71.0197 8.92L70.7397 7.92C70.153 5.86667 69.5397 4.37333 68.8997 3.44C68.2864 2.48 67.393 2 66.2197 2C65.073 2 64.153 2.37333 63.4597 3.12C62.793 3.86666 62.4597 4.92 62.4597 6.28C62.4597 7.42667 62.833 8.52 63.5797 9.56C64.3264 10.6 65.633 11.8667 67.4997 13.36C69.4997 14.9867 70.953 16.56 71.8597 18.08C72.793 19.5733 73.2597 21.1733 73.2597 22.88C73.2597 24.3733 72.9264 25.68 72.2597 26.8C71.593 27.92 70.673 28.8 69.4997 29.44C68.353 30.0533 67.033 30.36 65.5397 30.36ZM81.8288 30.36C81.2954 30.36 80.6954 30.3067 80.0288 30.2C79.3888 30.0933 78.7754 29.96 78.1888 29.8C77.6288 29.64 77.1888 29.4667 76.8688 29.28C76.6821 29.1733 76.5354 29.0667 76.4288 28.96C76.3488 28.8267 76.3088 28.6133 76.3088 28.32L76.1088 22.04C76.1088 21.5067 76.2821 21.24 76.6288 21.24C76.9221 21.24 77.1221 21.48 77.2288 21.96L77.5888 23.48C78.4954 27.2933 80.1888 29.2 82.6688 29.2C84.0021 29.2 85.0554 28.76 85.8288 27.88C86.6288 26.9733 87.0288 25.7067 87.0288 24.08C87.0288 22.5067 86.6154 21.04 85.7888 19.68C84.9888 18.32 83.6954 16.9733 81.9088 15.64C79.9354 14.2267 78.4954 12.8667 77.5888 11.56C76.6821 10.2267 76.2288 8.81333 76.2288 7.32C76.2288 5.34667 76.9088 3.77333 78.2688 2.6C79.6554 1.4 81.4154 0.799999 83.5488 0.799999C84.3488 0.799999 85.1221 0.893332 85.8688 1.08C86.6154 1.26667 87.2288 1.53333 87.7088 1.88C87.8688 1.98666 87.9888 2.10666 88.0688 2.24C88.1754 2.37333 88.2288 2.54667 88.2288 2.76L88.3488 8.8C88.3488 9.25333 88.1754 9.48 87.8288 9.48C87.5888 9.48 87.4154 9.29333 87.3088 8.92L87.0288 7.92C86.4421 5.86667 85.8288 4.37333 85.1888 3.44C84.5754 2.48 83.6821 2 82.5088 2C81.3621 2 80.4421 2.37333 79.7487 3.12C79.0821 3.86666 78.7488 4.92 78.7488 6.28C78.7488 7.42667 79.1221 8.52 79.8688 9.56C80.6154 10.6 81.9221 11.8667 83.7888 13.36C85.7888 14.9867 87.2421 16.56 88.1488 18.08C89.0821 19.5733 89.5488 21.1733 89.5488 22.88C89.5488 24.3733 89.2154 25.68 88.5488 26.8C87.8821 27.92 86.9621 28.8 85.7888 29.44C84.6421 30.0533 83.3221 30.36 81.8288 30.36ZM96.8378 18.32C95.9311 18.32 95.1711 18.04 94.5578 17.48C93.9445 16.8933 93.6378 16.12 93.6378 15.16C93.6378 14.2533 93.9445 13.5067 94.5578 12.92C95.1711 12.3333 95.9311 12.04 96.8378 12.04C97.6378 12.04 98.3578 12.3333 98.9978 12.92C99.6378 13.5067 99.9578 14.2533 99.9578 15.16C99.9578 16.12 99.6378 16.8933 98.9978 17.48C98.3578 18.04 97.6378 18.32 96.8378 18.32ZM114.229 30.36C112.256 30.36 110.522 29.7467 109.029 28.52C107.562 27.2933 106.416 25.5733 105.589 23.36C104.789 21.12 104.389 18.48 104.389 15.44C104.389 12.5067 104.829 9.94666 105.709 7.76C106.616 5.54666 107.816 3.84 109.309 2.64C110.829 1.41333 112.509 0.799999 114.349 0.799999C115.442 0.799999 116.402 0.906665 117.229 1.12C118.056 1.30666 118.789 1.56 119.429 1.88C119.749 2.06667 119.909 2.34667 119.909 2.72L120.029 8.8C120.029 9.25333 119.869 9.48 119.549 9.48C119.256 9.48 119.069 9.30667 118.989 8.96L118.589 7.48C118.029 5.4 117.376 3.96 116.629 3.16C115.909 2.36 115.042 1.96 114.029 1.96C112.162 1.96 110.602 3.12 109.349 5.44C108.122 7.73333 107.509 11.0667 107.509 15.44C107.509 18.4267 107.816 20.9467 108.429 23C109.069 25.0533 109.882 26.6 110.869 27.64C111.882 28.68 112.949 29.2 114.069 29.2C115.269 29.2 116.229 28.8267 116.949 28.08C117.696 27.3333 118.322 25.8933 118.829 23.76L119.309 21.8C119.389 21.4 119.602 21.2267 119.949 21.28C120.242 21.3333 120.389 21.56 120.389 21.96L120.229 28.44C120.229 28.8133 120.056 29.0933 119.709 29.28C119.069 29.6 118.309 29.8533 117.429 30.04C116.576 30.2533 115.509 30.36 114.229 30.36ZM132.339 30.36C131.059 30.36 129.859 29.9867 128.739 29.24C127.619 28.4667 126.632 27.4133 125.779 26.08C124.952 24.7467 124.299 23.1867 123.819 21.4C123.366 19.5867 123.139 17.64 123.139 15.56C123.139 13.48 123.366 11.5467 123.819 9.76C124.299 7.97333 124.952 6.41333 125.779 5.08C126.632 3.72 127.619 2.66667 128.739 1.92C129.859 1.17333 131.059 0.799999 132.339 0.799999C133.619 0.799999 134.806 1.17333 135.899 1.92C137.019 2.66667 138.006 3.72 138.859 5.08C139.712 6.41333 140.366 7.97333 140.819 9.76C141.299 11.5467 141.539 13.48 141.539 15.56C141.539 17.64 141.299 19.5867 140.819 21.4C140.366 23.1867 139.712 24.7467 138.859 26.08C138.006 27.4133 137.019 28.4667 135.899 29.24C134.806 29.9867 133.619 30.36 132.339 30.36ZM132.339 29.28C134.232 29.28 135.712 28.1467 136.779 25.88C137.846 23.6133 138.379 20.1733 138.379 15.56C138.379 10.9467 137.846 7.52 136.779 5.28C135.712 3.01333 134.232 1.88 132.339 1.88C130.472 1.88 128.992 3.01333 127.899 5.28C126.832 7.52 126.299 10.9467 126.299 15.56C126.299 20.1733 126.832 23.6133 127.899 25.88C128.992 28.1467 130.472 29.28 132.339 29.28ZM142.044 30C141.644 30 141.444 29.8667 141.444 29.6C141.444 29.3333 141.631 29.16 142.004 29.08L142.604 28.96C143.137 28.8533 143.537 28.6 143.804 28.2C144.071 27.7733 144.297 27.1867 144.484 26.44L150.684 1.44C150.737 1.17333 150.817 0.999998 150.924 0.919998C151.057 0.839999 151.177 0.799999 151.284 0.799999C151.417 0.799999 151.537 0.839999 151.644 0.919998C151.777 0.999998 151.871 1.17333 151.924 1.44L158.244 26.8C158.431 27.5467 158.644 28.0667 158.884 28.36C159.124 28.6533 159.497 28.8533 160.004 28.96L160.604 29.08C160.977 29.16 161.164 29.3333 161.164 29.6C161.164 29.8667 160.964 30 160.564 30H153.724C153.351 30 153.164 29.8533 153.164 29.56C153.164 29.2667 153.391 29.1067 153.844 29.08L154.604 29C155.057 28.9467 155.337 28.8 155.444 28.56C155.577 28.32 155.577 27.9067 155.444 27.32L153.924 21.12C153.764 20.4267 153.324 20.08 152.604 20.08H148.404C147.711 20.08 147.271 20.4267 147.084 21.12L145.724 26.48C145.324 28 145.724 28.84 146.924 29L147.524 29.08C147.977 29.16 148.204 29.32 148.204 29.56C148.204 29.8533 148.017 30 147.644 30H142.044ZM148.284 18.88H152.684C153.111 18.88 153.284 18.6533 153.204 18.2L150.644 7.48H150.444L147.764 18.2C147.684 18.6533 147.857 18.88 148.284 18.88ZM170.518 30.36C168.545 30.36 166.811 29.7467 165.318 28.52C163.851 27.2933 162.705 25.5733 161.878 23.36C161.078 21.12 160.678 18.48 160.678 15.44C160.678 12.5067 161.118 9.94666 161.998 7.76C162.905 5.54666 164.105 3.84 165.598 2.64C167.118 1.41333 168.798 0.799999 170.638 0.799999C171.731 0.799999 172.691 0.906665 173.518 1.12C174.345 1.30666 175.078 1.56 175.718 1.88C176.038 2.06667 176.198 2.34667 176.198 2.72L176.318 8.8C176.318 9.25333 176.158 9.48 175.838 9.48C175.545 9.48 175.358 9.30667 175.278 8.96L174.878 7.48C174.318 5.4 173.665 3.96 172.918 3.16C172.198 2.36 171.331 1.96 170.318 1.96C168.451 1.96 166.891 3.12 165.638 5.44C164.411 7.73333 163.798 11.0667 163.798 15.44C163.798 18.4267 164.105 20.9467 164.718 23C165.358 25.0533 166.171 26.6 167.158 27.64C168.171 28.68 169.238 29.2 170.358 29.2C171.558 29.2 172.518 28.8267 173.238 28.08C173.985 27.3333 174.611 25.8933 175.118 23.76L175.598 21.8C175.678 21.4 175.891 21.2267 176.238 21.28C176.531 21.3333 176.678 21.56 176.678 21.96L176.518 28.44C176.518 28.8133 176.345 29.0933 175.998 29.28C175.358 29.6 174.598 29.8533 173.718 30.04C172.865 30.2533 171.798 30.36 170.518 30.36ZM179.657 30C179.257 30 179.057 29.8533 179.057 29.56C179.057 29.32 179.23 29.16 179.577 29.08L180.497 28.92C181.057 28.8133 181.417 28.6667 181.577 28.48C181.764 28.2933 181.857 27.92 181.857 27.36V3.84C181.857 3.28 181.764 2.90667 181.577 2.72C181.417 2.53333 181.057 2.38667 180.497 2.28L179.577 2.12C179.23 2.04 179.057 1.88 179.057 1.64C179.057 1.34667 179.257 1.2 179.657 1.2H186.977C187.377 1.2 187.577 1.36 187.577 1.68C187.577 1.92 187.43 2.06666 187.137 2.12L186.057 2.28C185.497 2.36 185.124 2.50666 184.937 2.72C184.777 2.93333 184.697 3.32 184.697 3.88V13.92C184.697 14.2933 184.884 14.48 185.257 14.48H193.177C193.55 14.48 193.737 14.2933 193.737 13.92V3.88C193.737 3.32 193.644 2.93333 193.457 2.72C193.297 2.50666 192.937 2.36 192.377 2.28L191.297 2.12C191.004 2.06666 190.857 1.92 190.857 1.68C190.857 1.36 191.057 1.2 191.457 1.2H198.777C199.177 1.2 199.377 1.34667 199.377 1.64C199.377 1.88 199.204 2.04 198.857 2.12L197.937 2.28C197.377 2.38667 197.004 2.53333 196.817 2.72C196.657 2.90667 196.577 3.28 196.577 3.84V27.36C196.577 27.92 196.657 28.2933 196.817 28.48C197.004 28.6667 197.377 28.8133 197.937 28.92L198.857 29.08C199.204 29.16 199.377 29.32 199.377 29.56C199.377 29.8533 199.177 30 198.777 30H191.457C191.057 30 190.857 29.84 190.857 29.52C190.857 29.28 191.004 29.1333 191.297 29.08L192.377 28.92C192.937 28.84 193.297 28.6933 193.457 28.48C193.644 28.2667 193.737 27.88 193.737 27.32V16.24C193.737 15.8667 193.55 15.68 193.177 15.68H185.257C184.884 15.68 184.697 15.8667 184.697 16.24V27.32C184.697 27.88 184.777 28.2667 184.937 28.48C185.124 28.6933 185.497 28.84 186.057 28.92L187.137 29.08C187.43 29.1333 187.577 29.28 187.577 29.52C187.577 29.84 187.377 30 186.977 30H179.657Z" fill="white"/>
</svg>
