<svg width="48" height="31" viewBox="0 0 48 31" fill="none" xmlns="http://www.w3.org/2000/svg">
<path d="M10.44 30.36C8.46667 30.36 6.73333 29.7467 5.24 28.52C3.77333 27.2933 2.62667 25.5733 1.8 23.36C1 21.12 0.6 18.48 0.6 15.44C0.6 12.5067 1.04 9.94666 1.92 7.76C2.82667 5.54666 4.02667 3.84 5.52 2.64C7.04 1.41333 8.72 0.799999 10.56 0.799999C11.6533 0.799999 12.6133 0.906665 13.44 1.12C14.2667 1.30666 15 1.56 15.64 1.88C15.96 2.06667 16.12 2.34667 16.12 2.72L16.24 8.8C16.24 9.25333 16.08 9.48 15.76 9.48C15.4667 9.48 15.28 9.30667 15.2 8.96L14.8 7.48C14.24 5.4 13.5867 3.96 12.84 3.16C12.12 2.36 11.2533 1.96 10.24 1.96C8.37333 1.96 6.81333 3.12 5.56 5.44C4.33333 7.73333 3.72 11.0667 3.72 15.44C3.72 18.4267 4.02667 20.9467 4.64 23C5.28 25.0533 6.09333 26.6 7.08 27.64C8.09333 28.68 9.16 29.2 10.28 29.2C11.48 29.2 12.44 28.8267 13.16 28.08C13.9067 27.3333 14.5333 25.8933 15.04 23.76L15.52 21.8C15.6 21.4 15.8133 21.2267 16.16 21.28C16.4533 21.3333 16.6 21.56 16.6 21.96L16.44 28.44C16.44 28.8133 16.2667 29.0933 15.92 29.28C15.28 29.6 14.52 29.8533 13.64 30.04C12.7867 30.2533 11.72 30.36 10.44 30.36ZM24.2988 18.32C23.3921 18.32 22.6321 18.04 22.0188 17.48C21.4054 16.8933 21.0988 16.12 21.0988 15.16C21.0988 14.2533 21.4054 13.5067 22.0188 12.92C22.6321 12.3333 23.3921 12.04 24.2988 12.04C25.0988 12.04 25.8188 12.3333 26.4588 12.92C27.0988 13.5067 27.4188 14.2533 27.4188 15.16C27.4188 16.12 27.0988 16.8933 26.4588 17.48C25.8188 18.04 25.0988 18.32 24.2988 18.32ZM41.69 30.36C39.7167 30.36 37.9833 29.7467 36.49 28.52C35.0233 27.2933 33.8767 25.5733 33.05 23.36C32.25 21.12 31.85 18.48 31.85 15.44C31.85 12.5067 32.29 9.94666 33.17 7.76C34.0767 5.54666 35.2767 3.84 36.77 2.64C38.29 1.41333 39.97 0.799999 41.81 0.799999C42.9033 0.799999 43.8633 0.906665 44.69 1.12C45.5167 1.30666 46.25 1.56 46.89 1.88C47.21 2.06667 47.37 2.34667 47.37 2.72L47.49 8.8C47.49 9.25333 47.33 9.48 47.01 9.48C46.7167 9.48 46.53 9.30667 46.45 8.96L46.05 7.48C45.49 5.4 44.8367 3.96 44.09 3.16C43.37 2.36 42.5033 1.96 41.49 1.96C39.6233 1.96 38.0633 3.12 36.81 5.44C35.5833 7.73333 34.97 11.0667 34.97 15.44C34.97 18.4267 35.2767 20.9467 35.89 23C36.53 25.0533 37.3433 26.6 38.33 27.64C39.3433 28.68 40.41 29.2 41.53 29.2C42.73 29.2 43.69 28.8267 44.41 28.08C45.1567 27.3333 45.7833 25.8933 46.29 23.76L46.77 21.8C46.85 21.4 47.0633 21.2267 47.41 21.28C47.7033 21.3333 47.85 21.56 47.85 21.96L47.69 28.44C47.69 28.8133 47.5167 29.0933 47.17 29.28C46.53 29.6 45.77 29.8533 44.89 30.04C44.0367 30.2533 42.97 30.36 41.69 30.36Z" fill="white"/>
</svg>
